<svg xmlns="http://www.w3.org/2000/svg" viewBox="0 0 258.57 159.2"><defs><style>.cls-1{fill:#fff;}</style></defs><g id="Capa_2" data-name="Capa 2"><g id="Capa_1-2" data-name="Capa 1"><path class="cls-1" d="M62.86,104l-11.09,7.24q1.68-20,1.68-43.66,0-11.72-4.76-16T35.12,47.32q-10.8,0-19.93,7.83,0,25.93.31,56.13H1.66C2.61,99.89,3.15,87.36,3,73.86A378.46,378.46,0,0,0,0,32l6.71,7.28,7.72,7.39H15q11.25-10.2,24.11-10.19,12.63,0,19.55,5.59T65.62,62c0,1-.05,2.87-.16,5.71-.06,1.9-.1,3.8-.15,5.7C65.23,76.39,64.69,84.16,62.86,104Z"/><path class="cls-1" d="M157,29.11c-2.21,2.21-4.69,4.49-6.9,6.7-1.61,1.61-3.58,3.26-5.56,5-1.51,1.37-3,2.64-4.35,3.64v.76a20.74,20.74,0,0,1,4.87,13.54q0,11.86-7.79,19.58T113.23,86.1a35,35,0,0,1-11.49-1.52A7.92,7.92,0,0,0,98,91.2a6.27,6.27,0,0,0,4.42,6.46q5.63,2.13,23.5,2.13,28.89,0,28.9,19.17,0,13.68-11.26,22.66t-29.13,9q-18.33,0-26.12-6.66t-7.8-16q0-8.52,3.84-13.69a15.88,15.88,0,0,1,9.55-6.39v-.68q-6-2.9-6-11.1,0-7.45,7.61-13.09v-.6a22.63,22.63,0,0,1-7.69-6.7A18.56,18.56,0,0,1,84.17,64q0-12.09,8-19.7t23.12-7.6q12.39,0,19.47,4.49h.84Q138,28.31,148.36,28.3C152.11,28.3,155,28.35,157,29.11Zm-13.61,95q0-7.16-5.21-10.08t-19.58-2.93a158.57,158.57,0,0,1-17.8-.91q-9.28,4.49-9.28,13.16,0,18.56,24.34,18.56,12.69,0,20.11-5T143.42,124.13ZM132.85,61.92q0-8.37-5.29-12.82t-13.42-4.45A19.44,19.44,0,0,0,101.29,49c-3.45,2.87-5.18,6.93-5.18,12.21q0,8.28,5.29,12.62T115,78.12a19.41,19.41,0,0,0,12.74-4.22Q132.85,69.67,132.85,61.92Z"/><path class="cls-1" d="M258.57,82.61l-56,33.77-6.31-9.44L245.79,80.1V78.35L196.28,51.5l6.31-9.28,56,33.77Z"/><path class="cls-1" d="M184.79,0H183.2q0,17.13-14.37,85.22t-14.36,74h11.79q0-15.3,14.28-84.13,13.69-66,14.27-74.44A78.93,78.93,0,0,0,184.79,0Z"/></g></g></svg>